<svg viewBox="0 0 1200 900" xmlns="http://www.w3.org/2000/svg" font-family="Inter, Segoe UI, sans-serif">
<rect x="0" y="0" width="1200" height="900" fill="#f5f7f7"/>
<defs>
  <marker id="arrow" markerWidth="10" markerHeight="10" refX="8" refY="4" orient="auto">
    <path d="M0,0 L8,4 L0,8 Z" fill="#5c6d69"/>
  </marker>
  <marker id="triangle" markerWidth="16" markerHeight="16" refX="14" refY="7" orient="auto">
    <path d="M0,0 L14,7 L0,14 Z" fill="#ffffff" stroke="#163d3a" stroke-width="1.4"/>
  </marker>
</defs>
<text x="30" y="34" font-size="20" font-weight="700" fill="#163d3a">Diagrama de Casos de Uso — Sistema de Reservas e Empréstimos</text>
<text x="30" y="54" font-size="12.5" fill="#5c6d69">Ator Usuário (usuário comum) e Ator Administrador · Grupo A</text>
<rect x="260" y="80" width="700" height="760" rx="10" fill="#ffffff" stroke="#1c3d3a" stroke-width="1.4" stroke-dasharray="2,0"/>
<text x="610.0" y="106" text-anchor="middle" font-size="14" font-weight="700" fill="#163d3a">Sistema de Reservas e Empréstimos</text>
<g stroke="#163d3a" stroke-width="2" fill="none" stroke-linecap="round">
<circle cx="90" cy="271.0" r="11.0" fill="#ffffff"/>
<line x1="90" y1="282.0" x2="90" y2="316.0"/>
<line x1="74.0" y1="292.0" x2="106.0" y2="292.0"/>
<line x1="90" y1="316.0" x2="76.0" y2="338.0"/>
<line x1="90" y1="316.0" x2="104.0" y2="338.0"/>
</g>
<text x="90" y="356.0" text-anchor="middle" font-size="13" font-weight="700" fill="#163d3a">Usuário</text>
<g stroke="#163d3a" stroke-width="2" fill="none" stroke-linecap="round">
<circle cx="90" cy="631.0" r="11.0" fill="#ffffff"/>
<line x1="90" y1="642.0" x2="90" y2="676.0"/>
<line x1="74.0" y1="652.0" x2="106.0" y2="652.0"/>
<line x1="90" y1="676.0" x2="76.0" y2="698.0"/>
<line x1="90" y1="676.0" x2="104.0" y2="698.0"/>
</g>
<text x="90" y="716.0" text-anchor="middle" font-size="13" font-weight="700" fill="#163d3a">Administrador</text>
<ellipse cx="380" cy="160" rx="95" ry="32" fill="#ffffff" stroke="#245652" stroke-width="1.6"/>
<text x="380" y="164" text-anchor="middle" font-size="12.5" fill="#1c2422">Fazer login</text>
<ellipse cx="600" cy="160" rx="100" ry="32" fill="#ffffff" stroke="#245652" stroke-width="1.6"/>
<text x="600" y="164" text-anchor="middle" font-size="12.5" fill="#1c2422">Criar conta</text>
<ellipse cx="380" cy="230" rx="105" ry="34" fill="#ffffff" stroke="#245652" stroke-width="1.6"/>
<text x="380" y="226" text-anchor="middle" font-size="12.5" fill="#1c2422">Visualizar</text>
<text x="380" y="242" text-anchor="middle" font-size="12.5" fill="#1c2422">catálogo de recursos</text>
<ellipse cx="600" cy="230" rx="105" ry="34" fill="#ffffff" stroke="#245652" stroke-width="1.6"/>
<text x="600" y="226" text-anchor="middle" font-size="12.5" fill="#1c2422">Filtrar por</text>
<text x="600" y="242" text-anchor="middle" font-size="12.5" fill="#1c2422">categoria</text>
<ellipse cx="380" cy="310" rx="105" ry="34" fill="#ffffff" stroke="#245652" stroke-width="1.6"/>
<text x="380" y="306" text-anchor="middle" font-size="12.5" fill="#1c2422">Ver detalhes</text>
<text x="380" y="322" text-anchor="middle" font-size="12.5" fill="#1c2422">do recurso</text>
<ellipse cx="600" cy="310" rx="105" ry="36" fill="#ffffff" stroke="#245652" stroke-width="1.6"/>
<text x="600" y="314" text-anchor="middle" font-size="12.5" fill="#1c2422">Reservar recurso</text>
<ellipse cx="380" cy="400" rx="105" ry="34" fill="#ffffff" stroke="#245652" stroke-width="1.6"/>
<text x="380" y="396" text-anchor="middle" font-size="12.5" fill="#1c2422">Ver minhas</text>
<text x="380" y="412" text-anchor="middle" font-size="12.5" fill="#1c2422">reservas</text>
<ellipse cx="600" cy="400" rx="105" ry="34" fill="#ffffff" stroke="#245652" stroke-width="1.6"/>
<text x="600" y="396" text-anchor="middle" font-size="12.5" fill="#1c2422">Cancelar</text>
<text x="600" y="412" text-anchor="middle" font-size="12.5" fill="#1c2422">reserva própria</text>
<ellipse cx="380" cy="510" rx="105" ry="34" fill="#fdf3e3" stroke="#c77c22" stroke-width="1.6"/>
<text x="380" y="506" text-anchor="middle" font-size="12.5" fill="#1c2422">Gerenciar</text>
<text x="380" y="522" text-anchor="middle" font-size="12.5" fill="#1c2422">categorias</text>
<ellipse cx="600" cy="510" rx="105" ry="34" fill="#fdf3e3" stroke="#c77c22" stroke-width="1.6"/>
<text x="600" y="506" text-anchor="middle" font-size="12.5" fill="#1c2422">Gerenciar</text>
<text x="600" y="522" text-anchor="middle" font-size="12.5" fill="#1c2422">setores</text>
<ellipse cx="380" cy="590" rx="105" ry="36" fill="#fdf3e3" stroke="#c77c22" stroke-width="1.6"/>
<text x="380" y="586" text-anchor="middle" font-size="12.5" fill="#1c2422">Cadastrar recurso</text>
<text x="380" y="602" text-anchor="middle" font-size="12.5" fill="#1c2422">(com foto)</text>
<ellipse cx="600" cy="590" rx="105" ry="34" fill="#fdf3e3" stroke="#c77c22" stroke-width="1.6"/>
<text x="600" y="586" text-anchor="middle" font-size="12.5" fill="#1c2422">Editar / excluir</text>
<text x="600" y="602" text-anchor="middle" font-size="12.5" fill="#1c2422">recurso</text>
<ellipse cx="380" cy="680" rx="105" ry="34" fill="#fdf3e3" stroke="#c77c22" stroke-width="1.6"/>
<text x="380" y="676" text-anchor="middle" font-size="12.5" fill="#1c2422">Visualizar todas</text>
<text x="380" y="692" text-anchor="middle" font-size="12.5" fill="#1c2422">as reservas</text>
<ellipse cx="600" cy="680" rx="105" ry="34" fill="#fdf3e3" stroke="#c77c22" stroke-width="1.6"/>
<text x="600" y="676" text-anchor="middle" font-size="12.5" fill="#1c2422">Cancelar</text>
<text x="600" y="692" text-anchor="middle" font-size="12.5" fill="#1c2422">qualquer reserva</text>
<ellipse cx="490" cy="760" rx="120" ry="34" fill="#fdf3e3" stroke="#c77c22" stroke-width="1.6"/>
<text x="490" y="756" text-anchor="middle" font-size="12.5" fill="#1c2422">Consultar painel</text>
<text x="490" y="772" text-anchor="middle" font-size="12.5" fill="#1c2422">(dashboard)</text>
<line x1="90" y1="300" x2="285" y2="160" stroke="#5c6d69" stroke-width="1.3"  />
<line x1="90" y1="300" x2="500" y2="160" stroke="#5c6d69" stroke-width="1.3"  />
<line x1="90" y1="300" x2="275" y2="230" stroke="#5c6d69" stroke-width="1.3"  />
<line x1="90" y1="300" x2="495" y2="230" stroke="#5c6d69" stroke-width="1.3"  />
<line x1="90" y1="300" x2="275" y2="310" stroke="#5c6d69" stroke-width="1.3"  />
<line x1="90" y1="300" x2="495" y2="310" stroke="#5c6d69" stroke-width="1.3"  />
<line x1="90" y1="300" x2="275" y2="400" stroke="#5c6d69" stroke-width="1.3"  />
<line x1="90" y1="300" x2="495" y2="400" stroke="#5c6d69" stroke-width="1.3"  />
<line x1="90" y1="660" x2="275" y2="510" stroke="#5c6d69" stroke-width="1.3"  />
<line x1="90" y1="660" x2="495" y2="510" stroke="#5c6d69" stroke-width="1.3"  />
<line x1="90" y1="660" x2="275" y2="590" stroke="#5c6d69" stroke-width="1.3"  />
<line x1="90" y1="660" x2="495" y2="590" stroke="#5c6d69" stroke-width="1.3"  />
<line x1="90" y1="660" x2="275" y2="680" stroke="#5c6d69" stroke-width="1.3"  />
<line x1="90" y1="660" x2="495" y2="680" stroke="#5c6d69" stroke-width="1.3"  />
<line x1="90" y1="660" x2="370" y2="760" stroke="#5c6d69" stroke-width="1.3"  />
<line x1="90" y1="553" x2="90" y2="367" stroke="#163d3a" stroke-width="1.6" marker-end="url(#triangle)"/>
<line x1="495" y1="310" x2="408.5" y2="192" stroke="#5c6d69" stroke-width="1.2" stroke-dasharray="5,4" marker-end="url(#arrow)"/><text x="521.75" y="251.0" font-size="10.5" fill="#163d3a" text-anchor="middle" font-style="italic">«include»</text>
<line x1="495" y1="680" x2="432.5" y2="714" stroke="#5c6d69" stroke-width="1.2" stroke-dasharray="5,4" marker-end="url(#arrow)"/><text x="533.75" y="697.0" font-size="10.5" fill="#163d3a" text-anchor="middle" font-style="italic">«include»</text>
<ellipse cx="274" cy="870" rx="14" ry="9" fill="#ffffff" stroke="#245652" stroke-width="1.4"/>
<text x="298" y="874" font-size="12" fill="#163d3a">Caso de uso do Usuário comum</text>
<ellipse cx="540" cy="870" rx="14" ry="9" fill="#fdf3e3" stroke="#c77c22" stroke-width="1.4"/>
<text x="564" y="874" font-size="12" fill="#163d3a">Caso de uso do Administrador</text>
</svg>